<?xml version="1.0" encoding="utf-8"?>
<!-- Generator: Adobe Illustrator 18.1.1, SVG Export Plug-In . SVG Version: 6.00 Build 0)  -->
<!DOCTYPE svg PUBLIC "-//W3C//DTD SVG 1.1//EN" "http://www.w3.org/Graphics/SVG/1.1/DTD/svg11.dtd">
<svg version="1.1" id="Layer_1" xmlns="http://www.w3.org/2000/svg" xmlns:xlink="http://www.w3.org/1999/xlink" x="0px" y="0px"
	 viewBox="0 0 1984.2 2267.7" enable-background="new 0 0 1984.2 2267.7" xml:space="preserve">
<linearGradient id="SVGID_1_" gradientUnits="userSpaceOnUse" x1="8.903443e-03" y1="1134.848" x2="1984.2609" y2="1134.848">
	<stop  offset="0" style="stop-color:#2896D3"/>
	<stop  offset="1" style="stop-color:#2E7DC1"/>
</linearGradient>
<path fill="url(#SVGID_1_)" d="M992.1,142.7C444.3,142.7,0,587,0,1134.8S444.3,2127,992.1,2127s992.1-444.3,992.1-992.1
	S1540,142.7,992.1,142.7z M485.8,1886.1c1.7-38.1,7.5-75.1,17.2-110.8c11.9-43.6,28.7-84.2,50.5-121.8
	c21.8-37.6,47.9-71.7,78.5-102.3c30.6-30.5,64.7-56.8,102.3-78.5c37.6-21.8,78.2-38.6,121.8-50.5c43.5-11.9,88.9-17.8,136-17.8
	c72.1,0,139.1,12.9,201,38.6c61.8,25.7,115.3,61.3,160.7,106.6c45.3,45.4,80.9,98.9,106.6,160.7c22.7,54.6,35.4,113.2,38.1,175.8
	c-144.5,97.6-318.8,154.6-506.4,154.6C804.6,2040.7,630.3,1983.7,485.8,1886.1z M753.5,1220.5c-30.6-30.5-54.8-66.3-72.6-107.3
	c-17.8-40.9-26.7-84.6-26.7-131.3c0-46.6,8.9-90.4,26.7-131.3c17.8-40.9,42-76.7,72.6-107.3c30.5-30.5,66.3-54.8,107.3-72.6
	c40.9-17.8,84.7-26.7,131.3-26.7c46.6,0,90.4,8.9,131.3,26.7c40.9,17.8,76.6,42.1,107.3,72.6c30.5,30.6,54.8,66.3,72.6,107.3
	c17.8,40.9,26.7,84.7,26.7,131.3c0,46.7-8.9,90.4-26.7,131.3c-17.8,40.9-42.1,76.7-72.6,107.3c-30.6,30.6-66.3,54.8-107.3,72.6
	c-40.9,17.8-84.7,26.7-131.3,26.7c-46.7,0-90.4-8.9-131.3-26.7C819.9,1275.3,784.1,1251.1,753.5,1220.5z M1577.8,1826
	c-4.5-32.8-11.6-64.9-21.3-96.3c-18.1-58.1-43.9-111.5-77.6-160.4c-33.7-48.8-74.6-91.8-122.8-129c-48.2-37.1-102.2-66.1-162-86.8
	c33.8-18.5,64.4-41,91.4-67.7c27.1-26.6,50.2-55.9,69.3-88.1c19.1-32.1,33.8-66.4,44.2-103c10.3-36.5,15.5-74.1,15.5-112.9
	c0-58.5-11.1-113.4-33-164.7c-22-51.2-52.1-96-90.4-134.3c-38.3-38.3-83.1-68.4-134.3-90.4c-51.3-21.9-106.2-33-164.7-33
	c-58.6,0-113.4,11.1-164.7,33c-51.3,22-96,52.1-134.3,90.4c-38.3,38.3-68.5,83.1-90.4,134.3c-22,51.3-33,106.2-33,164.7
	c0,38.8,5.1,76.5,15.5,113.2c10.3,36.8,25.1,71.3,44.2,103.6c19.1,32.3,42.3,61.7,69.6,88.1c27.3,26.4,58.1,48.8,92.4,67.3
	c-59.4,21.6-113.2,50.8-161.4,87.8c-48.2,37-89.3,79.7-123.1,128c-33.9,48.4-60.1,101.6-78.5,159.4c-10,31.4-17.3,63.6-21.9,96.6
	c-195.9-166.1-320.3-414.1-320.3-691.2C86.3,634.5,491.8,229,992.1,229S1898,634.5,1898,1134.8
	C1898,1411.9,1773.7,1659.9,1577.8,1826z"/>
</svg>
