<?xml version="1.0" encoding="utf-8"?>
<!-- Generator: Adobe Illustrator 18.1.1, SVG Export Plug-In . SVG Version: 6.00 Build 0)  -->
<!DOCTYPE svg PUBLIC "-//W3C//DTD SVG 1.1//EN" "http://www.w3.org/Graphics/SVG/1.1/DTD/svg11.dtd">
<svg version="1.1" id="Layer_1" xmlns="http://www.w3.org/2000/svg" xmlns:xlink="http://www.w3.org/1999/xlink" x="0px" y="0px"
	 viewBox="0 0 31 23" enable-background="new 0 0 31 23" xml:space="preserve">
<linearGradient id="SVGID_1_" gradientUnits="userSpaceOnUse" x1="15.001" y1="1.6539" x2="15.001" y2="4.4704">
	<stop  offset="0" style="stop-color:#BBBDBF"/>
	<stop  offset="1" style="stop-color:#595A5C"/>
</linearGradient>
<path fill="url(#SVGID_1_)" d="M14.1,1v2.3c0.3,0,0.6,0,0.9,0c0.3,0,0.6,0,0.8,0V1H14.1z"/>
<g>
	<linearGradient id="SVGID_2_" gradientUnits="userSpaceOnUse" x1="15" y1="2.4308" x2="15" y2="13.6651">
		<stop  offset="0" style="stop-color:#A6A8AC"/>
		<stop  offset="1" style="stop-color:#808184"/>
	</linearGradient>
	<path fill="url(#SVGID_2_)" d="M27,16.2C27,9.5,21.6,3,15,3C8.4,3,3,9.5,3,16.2L3,20l24,0.1V16.2z"/>
</g>
<g>
	<linearGradient id="SVGID_3_" gradientUnits="userSpaceOnUse" x1="15" y1="-0.7754" x2="15" y2="2.4582">
		<stop  offset="0" style="stop-color:#BBBDBF"/>
		<stop  offset="1" style="stop-color:#929497"/>
	</linearGradient>
	<path fill="url(#SVGID_3_)" d="M13,1.1C13,0.5,13.5,0,14.1,0h1.7C16.5,0,17,0.5,17,1.1L17,4c-0.3,0-0.6-0.1-1-0.1L16,2h-2v1.9
		c-0.3,0-0.7,0.1-1,0.1L13,1.1z"/>
	<linearGradient id="SVGID_4_" gradientUnits="userSpaceOnUse" x1="15.0015" y1="0.2881" x2="15.0015" y2="3.1854">
		<stop  offset="0" style="stop-color:#F2F2F2"/>
		<stop  offset="1" style="stop-color:#BBBDBF"/>
	</linearGradient>
	<path fill="url(#SVGID_4_)" d="M14.2,4.1L14.2,4.1c0.3,0,0.6,0,0.8,0c0.3,0,0.5,0,0.8,0v0c-0.3,0-0.5,0-0.8,0
		C14.7,4.1,14.5,4.1,14.2,4.1z"/>
	<linearGradient id="SVGID_5_" gradientUnits="userSpaceOnUse" x1="15.0015" y1="0.2881" x2="15.0015" y2="3.1854">
		<stop  offset="0" style="stop-color:#F2F2F2"/>
		<stop  offset="1" style="stop-color:#BBBDBF"/>
	</linearGradient>
	<path fill="url(#SVGID_5_)" d="M14.2,4.1L14.2,4.1c0.3,0,0.6,0,0.8,0c0.3,0,0.5,0,0.8,0v0c-0.3,0-0.5,0-0.8,0
		C14.7,4.1,14.5,4.1,14.2,4.1z"/>
</g>
<linearGradient id="SVGID_6_" gradientUnits="userSpaceOnUse" x1="15" y1="0.3629" x2="15" y2="4.4735">
	<stop  offset="0" style="stop-color:#FFFFFF"/>
	<stop  offset="1" style="stop-color:#A6A8AC"/>
</linearGradient>
<path fill="url(#SVGID_6_)" d="M16,4c-0.3,0-0.6,0-1,0c-0.3,0-0.7,0-1,0l0-2.7C14,1.1,14.1,1,14.3,1h1.4C15.9,1,16,1.1,16,1.3L16,4z
	"/>
<linearGradient id="SVGID_7_" gradientUnits="userSpaceOnUse" x1="15.0498" y1="7.969" x2="15.0498" y2="27.4275">
	<stop  offset="0" style="stop-color:#929497"/>
	<stop  offset="1" style="stop-color:#6E6F71"/>
</linearGradient>
<path opacity="0.75" fill="url(#SVGID_7_)" d="M4,16c0,1.9,0.6,3.7,1.7,5.2h18.7c1.1-1.5,1.7-3.3,1.7-5.2H4z"/>
<linearGradient id="SVGID_8_" gradientUnits="userSpaceOnUse" x1="15.4372" y1="16.7049" x2="19.7433" y2="1.5998">
	<stop  offset="0.4" style="stop-color:#F2F2F2"/>
	<stop  offset="1" style="stop-color:#BBBDBF"/>
</linearGradient>
<path fill="url(#SVGID_8_)" d="M15,4C9,4,4.1,10,4.1,16.1V22h1.7h18.5h1.7v-5.9C25.9,10,21,4,15,4z"/>
<g opacity="0.5">
	<linearGradient id="SVGID_9_" gradientUnits="userSpaceOnUse" x1="22.9945" y1="12.9932" x2="15.2061" y2="12.9932">
		<stop  offset="4.694840e-03" style="stop-color:#E4E4F2"/>
		<stop  offset="0.75" style="stop-color:#887EA7"/>
	</linearGradient>
	<path fill="url(#SVGID_9_)" d="M15,4c0,0,1.6,6.4,0,10.9c-1.3,3.7-4.6,7.1-4.6,7.1h13.9h1.7v-5.9C25.9,10,21,4,15,4z"/>
</g>
<g opacity="0.8">
	<linearGradient id="SVGID_10_" gradientUnits="userSpaceOnUse" x1="15.0102" y1="28.8811" x2="15.0102" y2="14.9596">
		<stop  offset="0" style="stop-color:#FFFFFF;stop-opacity:0"/>
		<stop  offset="1" style="stop-color:#A6A8AC"/>
	</linearGradient>
	<path opacity="0.5" fill="url(#SVGID_10_)" d="M15,5.7c-2.2,0-4.3,0.7-6,2c0.1,0,0.2,0,0.3,0c1.2,0,2.1,0.9,2.1,2.1
		c0,1.2-0.9,2.1-2.1,2.1c-1.2,0-2.1-0.9-2.1-2.1c0-0.2,0-0.3,0.1-0.5c-1.6,1.8-2.5,4.2-2.5,6.8v3h20.5v-3C25.3,10.3,20.7,5.7,15,5.7
		z"/>
</g>
<linearGradient id="SVGID_11_" gradientUnits="userSpaceOnUse" x1="-55.5632" y1="21.5" x2="30.0248" y2="21.5" gradientTransform="matrix(0.3622 0 0 1 20.125 0)">
	<stop  offset="0" style="stop-color:#F7F8F8;stop-opacity:0"/>
	<stop  offset="6.033510e-02" style="stop-color:#F0F0F0;stop-opacity:0.1207"/>
	<stop  offset="0.1913" style="stop-color:#E9E9E9;stop-opacity:0.3827"/>
	<stop  offset="0.5" style="stop-color:#E7E7E7"/>
	<stop  offset="0.7896" style="stop-color:#E9E9E9;stop-opacity:0.4208"/>
	<stop  offset="0.9125" style="stop-color:#F0F0F0;stop-opacity:0.1751"/>
	<stop  offset="1" style="stop-color:#FFFFFF;stop-opacity:0"/>
</linearGradient>
<rect y="20" fill="url(#SVGID_11_)" width="31" height="3"/>
<g opacity="0.85">
	<linearGradient id="SVGID_12_" gradientUnits="userSpaceOnUse" x1="14.6782" y1="17.9344" x2="14.6782" y2="9.9588">
		<stop  offset="0" style="stop-color:#A6A8AC"/>
		<stop  offset="1" style="stop-color:#525252"/>
	</linearGradient>
	<path opacity="0.45" fill="url(#SVGID_12_)" d="M14.7,8.9c-1.3,0-2.6,0.4-3.6,1.1c-0.1,1.1-0.9,1.9-1.9,2c-0.7,1.2-1.1,2.5-1.1,4
		v2.1h13.4v-2.1C21.4,12.1,18.4,8.9,14.7,8.9z"/>
</g>
<linearGradient id="SVGID_13_" gradientUnits="userSpaceOnUse" x1="2" y1="19.5" x2="29" y2="19.5">
	<stop  offset="0" style="stop-color:#313131"/>
	<stop  offset="0.5023" style="stop-color:#525252"/>
	<stop  offset="1" style="stop-color:#373636"/>
</linearGradient>
<path fill="url(#SVGID_13_)" d="M29,19.9c0,1.2-1,2.1-2.1,2.1H4.1C3,22,2,21,2,19.9v-0.7C2,18,3,17,4.1,17h22.7
	c1.2,0,2.1,1.1,2.1,2.3V19.9z"/>
<linearGradient id="SVGID_14_" gradientUnits="userSpaceOnUse" x1="27.2398" y1="19.5" x2="3.5531" y2="19.5">
	<stop  offset="0" style="stop-color:#919191"/>
	<stop  offset="0.2019" style="stop-color:#575858"/>
	<stop  offset="0.722" style="stop-color:#919191"/>
	<stop  offset="1" style="stop-color:#6F6F6F"/>
</linearGradient>
<path fill="url(#SVGID_14_)" d="M4.6,20.8c-0.8,0-1.4-0.4-1.4-1v-0.5c0-0.6,0.6-1,1.4-1h21.7c0.8,0,1.4,0.4,1.4,1v0.5
	c0,0.6-0.6,1-1.4,1H4.6z"/>
<radialGradient id="SVGID_15_" cx="14.6625" cy="20.4353" r="10.652" fx="7.4474" fy="18.9575" gradientTransform="matrix(0.989 0 0 0.9616 0.5166 0.24)" gradientUnits="userSpaceOnUse">
	<stop  offset="0" style="stop-color:#F2F2F2"/>
	<stop  offset="3.165707e-02" style="stop-color:#D6D5D5"/>
	<stop  offset="0.1044" style="stop-color:#ACA9A9"/>
	<stop  offset="0.1838" style="stop-color:#8C8989"/>
	<stop  offset="0.27" style="stop-color:#757272"/>
	<stop  offset="0.3655" style="stop-color:#656363"/>
	<stop  offset="0.4756" style="stop-color:#5A5959"/>
	<stop  offset="0.613" style="stop-color:#545453"/>
	<stop  offset="0.8633" style="stop-color:#525252"/>
</radialGradient>
<path opacity="0.35" fill="url(#SVGID_15_)" d="M4.3,20.8c-0.6,0-1-0.4-1-0.9v-0.6c0-0.5,0.5-0.9,1-0.9h22.3c0.6,0,1,0.4,1,0.9v0.6
	c0,0.5-0.5,0.9-1,0.9H4.3z"/>
<ellipse fill="#E7E7E7" cx="9.3" cy="9.7" rx="2.1" ry="2.1"/>
<ellipse fill="#FFFFFF" cx="9.3" cy="9.7" rx="1.1" ry="1.1"/>
<path opacity="0.5" fill="#FFFFFF" d="M14.4,12.6c0,0.4-0.3,0.6-0.6,0.6c-0.4,0-0.6-0.3-0.6-0.6c0-0.4,0.3-0.6,0.6-0.6
	C14.1,12,14.4,12.3,14.4,12.6z"/>
<linearGradient id="SVGID_16_" gradientUnits="userSpaceOnUse" x1="27.2398" y1="20.125" x2="3.5531" y2="20.125">
	<stop  offset="4.694840e-03" style="stop-color:#6F6F6F"/>
	<stop  offset="0.4038" style="stop-color:#575858"/>
	<stop  offset="1" style="stop-color:#919191;stop-opacity:0"/>
</linearGradient>
<path fill="url(#SVGID_16_)" d="M27.7,19.5c0,0.7-0.4,1.2-1.4,1.2H4.6c-0.8,0-1.4-0.6-1.4-1.2H27.7z"/>
</svg>
