<?xml version="1.0" encoding="utf-8"?>
<!-- Generator: Adobe Illustrator 18.1.1, SVG Export Plug-In . SVG Version: 6.00 Build 0)  -->
<!DOCTYPE svg PUBLIC "-//W3C//DTD SVG 1.1//EN" "http://www.w3.org/Graphics/SVG/1.1/DTD/svg11.dtd">
<svg version="1.1" id="Layer_1" xmlns="http://www.w3.org/2000/svg" xmlns:xlink="http://www.w3.org/1999/xlink" x="0px" y="0px"
	 viewBox="282 422.1 1450.8 1451.3" enable-background="new 282 422.1 1450.8 1451.3" xml:space="preserve">
<path fill-opacity="0.1" d="M1463.8,1280.4c0-251-203.5-454.6-454.6-454.6s-454.6,203.5-454.6,454.6h129.9
	c0-179.3,145.4-324.7,324.7-324.7s324.7,145.4,324.7,324.7"/>
<radialGradient id="SVGID_1_" cx="0.5007" cy="2267.5876" r="0.735" gradientTransform="matrix(795.1964 0 0 -795.1964 607.8219 1804033.25)" gradientUnits="userSpaceOnUse">
	<stop  offset="0.1" style="stop-color:#7FB3DF"/>
	<stop  offset="0.9" style="stop-color:#0F5B94"/>
</radialGradient>
<radialGradient id="SVGID_2_" cx="0.5007" cy="2267.7068" r="0.9735" gradientTransform="matrix(795.1964 0 0 -795.1964 607.8219 1804033.25)" gradientUnits="userSpaceOnUse">
	<stop  offset="0" style="stop-color:#F6F0EE"/>
	<stop  offset="1" style="stop-color:#DDDDDD"/>
</radialGradient>
<circle fill="url(#SVGID_1_)" stroke="url(#SVGID_2_)" stroke-width="9" cx="1006" cy="1148" r="292.2"/>
<radialGradient id="SVGID_3_" cx="0.4948" cy="2267.4871" r="0.3675" gradientTransform="matrix(1705.2545 0 0 -1123.6722 188.1395 2548334.5)" gradientUnits="userSpaceOnUse">
	<stop  offset="0" style="stop-color:#F06B59"/>
	<stop  offset="1" style="stop-color:#DF2227"/>
</radialGradient>
<path fill="url(#SVGID_3_)" d="M1658.6,825.9c-178.8-359.7-615.3-506.4-975-327.6c-112.2,55.7-208,139.5-278.3,243.2L697.5,1248
	c-53.8-171.1,41.2-353.3,212.3-407.2c30.1-9.5,61.4-14.5,92.9-14.9"/>
<radialGradient id="SVGID_4_" cx="0.6751" cy="2267.4043" r="0.5586" gradientTransform="matrix(1325.1619 0 0 -1537.3798 20.4283 3486941.75)" gradientUnits="userSpaceOnUse">
	<stop  offset="0.65" style="stop-color:#4CB749"/>
	<stop  offset="1" style="stop-color:#388B41"/>
</radialGradient>
<path fill="url(#SVGID_4_)" d="M405.3,741.5c-223.7,333.6-134.5,785.4,199.1,1009.1c103.2,69.2,222.5,110.8,346.3,120.8l305.2-519.5
	c-114.1,138.3-318.8,157.9-457.1,43.8c-47-38.8-82.1-89.9-101.4-147.7"/>
<radialGradient id="SVGID_5_" cx="0.2838" cy="2267.4548" r="0.588" gradientTransform="matrix(1064.1782 0 0 -1425.3806 930.3196 3233074)" gradientUnits="userSpaceOnUse">
	<stop  offset="0.6" style="stop-color:#FCD209"/>
	<stop  offset="0.7" style="stop-color:#F7C616"/>
	<stop  offset="1" style="stop-color:#BC821E"/>
</radialGradient>
<path fill="url(#SVGID_5_)" d="M950.8,1871.4c400.5,30.3,749.8-269.9,780-670.4c9.8-129.2-15.2-258.7-72.2-375.1h-655.9
	c179.3,0.8,324,146.9,323.2,326.2c-0.3,72.5-25,142.9-69.9,199.8"/>
<path opacity="7.500000e-02" enable-background="new    " d="M405.3,741.5L697.5,1248c-21.6-72.8-17-151,13-220.8L418.3,722"/>
<path opacity="5.000000e-02" enable-background="new    " d="M950.8,1871.4l305.2-519.5c-48.2,57.4-114.7,96.4-188.3,110.4
	l-129.9,409.1"/>
<path opacity="5.000000e-02" enable-background="new    " d="M1658.6,825.9h-655.9c98.8,0.5,192,45.9,253.3,123.4l415.6-103.9"/>
</svg>
