<?xml version="1.0" encoding="utf-8"?>
<!-- Generator: Adobe Illustrator 18.1.1, SVG Export Plug-In . SVG Version: 6.00 Build 0)  -->
<!DOCTYPE svg PUBLIC "-//W3C//DTD SVG 1.1//EN" "http://www.w3.org/Graphics/SVG/1.1/DTD/svg11.dtd">
<svg version="1.1" id="Layer_1" xmlns="http://www.w3.org/2000/svg" xmlns:xlink="http://www.w3.org/1999/xlink" x="0px" y="0px"
	 viewBox="329.3 408 1451.3 1451.3" enable-background="new 329.3 408 1451.3 1451.3" xml:space="preserve">
<g id="Layer_2" display="none">
	
		<rect x="82.2" y="160.9" display="inline" fill="none" stroke="#000000" stroke-width="2" stroke-miterlimit="10" width="1945.6" height="1945.6"/>
</g>
<g id="Layer_1_1_">
	<path fill="#3377BC" d="M1608.8,690.9c-1.6-2.3-3.3-4.6-5-6.8c-123.1-167.6-319.6-276-541-276c-358,0-650.9,283.7-673.6,642.3
		c54.5-100.7,303.6-366.5,634.5-366.5s300,311.9,300,311.9H805.5c9.6-122.8,98.2-227.8,98.2-227.8
		C537.4,916.7,553.9,1292,553.9,1292c8.9,175.4,66.4,296.7,142.8,380.4c181,198.5,468.1,186.7,468.1,186.7
		c258.6,0,432.9-104.2,432.9-104.2v-240.5V1451c0,0-149.8,105.4-395.9,109.5c-410.3-8.2-390.5-309.6-390.5-309.6h909.2
		c0,0,0-0.1,0-0.1v-161.4C1720.6,1089.4,1728.7,860.2,1608.8,690.9z"/>
</g>
</svg>
