<?xml version="1.0" encoding="utf-8"?>
<!-- Generator: Adobe Illustrator 18.1.1, SVG Export Plug-In . SVG Version: 6.00 Build 0)  -->
<!DOCTYPE svg PUBLIC "-//W3C//DTD SVG 1.1//EN" "http://www.w3.org/Graphics/SVG/1.1/DTD/svg11.dtd">
<svg version="1.1" id="Layer_1" xmlns="http://www.w3.org/2000/svg" xmlns:xlink="http://www.w3.org/1999/xlink" x="0px" y="0px"
	 viewBox="0 0 36 30" enable-background="new 0 0 36 30" xml:space="preserve">
<linearGradient id="SVGID_1_" gradientUnits="userSpaceOnUse" x1="-60.6121" y1="28.1186" x2="38.7805" y2="28.1186" gradientTransform="matrix(0.3622 0 0 1 21.9537 0)">
	<stop  offset="0" style="stop-color:#F7F8F8;stop-opacity:0"/>
	<stop  offset="2.318439e-02" style="stop-color:#E1E1E1;stop-opacity:4.636878e-02"/>
	<stop  offset="6.271175e-02" style="stop-color:#C7C6C7;stop-opacity:0.1254"/>
	<stop  offset="0.1075" style="stop-color:#B2B2B4;stop-opacity:0.215"/>
	<stop  offset="0.1588" style="stop-color:#A3A4A6;stop-opacity:0.3176"/>
	<stop  offset="0.2207" style="stop-color:#999B9D;stop-opacity:0.4414"/>
	<stop  offset="0.304" style="stop-color:#949598;stop-opacity:0.608"/>
	<stop  offset="0.5" style="stop-color:#929497"/>
	<stop  offset="0.694" style="stop-color:#949598;stop-opacity:0.612"/>
	<stop  offset="0.7764" style="stop-color:#999B9D;stop-opacity:0.4472"/>
	<stop  offset="0.8377" style="stop-color:#A3A4A6;stop-opacity:0.3246"/>
	<stop  offset="0.8885" style="stop-color:#B2B2B4;stop-opacity:0.223"/>
	<stop  offset="0.9328" style="stop-color:#C7C6C7;stop-opacity:0.1344"/>
	<stop  offset="0.9719" style="stop-color:#E1E0E0;stop-opacity:5.610561e-02"/>
	<stop  offset="1" style="stop-color:#FFFFFF;stop-opacity:0"/>
</linearGradient>
<rect x="0" y="26.3" fill="url(#SVGID_1_)" width="36" height="3.7"/>
<linearGradient id="SVGID_2_" gradientUnits="userSpaceOnUse" x1="17.8496" y1="2.5745" x2="17.8496" y2="32.0745">
	<stop  offset="0" style="stop-color:#C7C6C6"/>
	<stop  offset="1" style="stop-color:#575757"/>
</linearGradient>
<path fill="url(#SVGID_2_)" d="M4.4,29.5c-0.7,0-1.3-0.6-1.3-1.3V1.3C3.1,0.6,3.7,0,4.4,0h26.9c0.7,0,1.3,0.6,1.3,1.3v26.9
	c0,0.7-0.6,1.3-1.3,1.3H4.4z"/>
<linearGradient id="SVGID_3_" gradientUnits="userSpaceOnUse" x1="17.8531" y1="4.3092" x2="17.8531" y2="31.4274">
	<stop  offset="0" style="stop-color:#CDCDCD"/>
	<stop  offset="1" style="stop-color:#DDDDEC"/>
</linearGradient>
<rect x="4.3" y="1.2" fill="url(#SVGID_3_)" width="27.1" height="27.1"/>
<linearGradient id="SVGID_4_" gradientUnits="userSpaceOnUse" x1="21.0014" y1="23.1633" x2="13.4963" y2="7.4478">
	<stop  offset="0" style="stop-color:#6E6F71"/>
	<stop  offset="1" style="stop-color:#F2F2F2;stop-opacity:0"/>
</linearGradient>
<path opacity="0.45" fill="url(#SVGID_4_)" d="M18,18.1l-3.8,4.3l1.5,1.6c0.4,0.5,1.5,1.1,2.2,1.1l4.5,0c0.7,0,1.2-0.5,1.2-1.2
	l-1-10.9L18,18.1z"/>
<linearGradient id="SVGID_5_" gradientUnits="userSpaceOnUse" x1="17.8511" y1="15.5374" x2="17.8511" y2="41.0764">
	<stop  offset="0" style="stop-color:#CECFCF"/>
	<stop  offset="1" style="stop-color:#F2F2F2"/>
</linearGradient>
<rect x="5.1" y="2" opacity="0.45" fill="url(#SVGID_5_)" width="25.5" height="25.5"/>
<path opacity="0.7" fill="#FFFFFF" d="M4.3,1.2v17.3c0,0,6-6.8,13.9-8.6c7.8-1.7,13.2,1.8,13.2,1.8V1.2H4.3z"/>
<linearGradient id="SVGID_6_" gradientUnits="userSpaceOnUse" x1="17.8672" y1="16.273" x2="17.8672" y2="24.0808">
	<stop  offset="0" style="stop-color:#ADADB4;stop-opacity:0.8"/>
	<stop  offset="0.2688" style="stop-color:#B2B2B9;stop-opacity:0.5849"/>
	<stop  offset="0.6592" style="stop-color:#C3C3C6;stop-opacity:0.2726"/>
	<stop  offset="1" style="stop-color:#D7D7D7;stop-opacity:0"/>
</linearGradient>
<rect x="12.9" y="6.8" fill="url(#SVGID_6_)" width="10" height="16"/>
<linearGradient id="SVGID_7_" gradientUnits="userSpaceOnUse" x1="17.8672" y1="25.3384" x2="17.8672" y2="15.5965">
	<stop  offset="0" style="stop-color:#959595"/>
	<stop  offset="1" style="stop-color:#595A5C"/>
</linearGradient>
<polygon fill="url(#SVGID_7_)" points="13.9,7.8 13.9,22.5 14.6,22.5 14.6,22.8 21.1,22.8 21.1,22.5 21.9,22.5 21.9,7.8 "/>
<g>
	<rect x="6.9" y="5.8" opacity="0.25" fill="#F2F2F2" width="1" height="1"/>
	<rect x="27.9" y="5.8" opacity="0.25" fill="#F2F2F2" width="1" height="1"/>
	<rect x="6.9" y="24.8" opacity="0.25" fill="#F2F2F2" width="1" height="1"/>
	<rect x="27.9" y="24.8" opacity="0.25" fill="#F2F2F2" width="1" height="1"/>
	<rect x="6.9" y="4.8" fill="#ABABAB" width="1" height="1"/>
	<rect x="6.9" y="23.8" fill="#989898" width="1" height="1"/>
	<rect x="27.9" y="23.8" fill="#989898" width="1" height="1"/>
	<rect x="27.9" y="4.8" fill="#ABABAB" width="1" height="1"/>
</g>
<linearGradient id="SVGID_8_" gradientUnits="userSpaceOnUse" x1="17.8672" y1="24.3522" x2="17.8672" y2="17.1187">
	<stop  offset="0" style="stop-color:#CDCDCD"/>
	<stop  offset="1" style="stop-color:#FFFFFF"/>
</linearGradient>
<rect x="14.9" y="14.1" fill="url(#SVGID_8_)" width="6" height="8.7"/>
<linearGradient id="SVGID_9_" gradientUnits="userSpaceOnUse" x1="17.8672" y1="11.4081" x2="17.8672" y2="16.8219">
	<stop  offset="0" style="stop-color:#FFFFFF"/>
	<stop  offset="0.256" style="stop-color:#A6A0A1"/>
	<stop  offset="0.6131" style="stop-color:#575151"/>
	<stop  offset="0.8704" style="stop-color:#312C2D"/>
	<stop  offset="1" style="stop-color:#231F20"/>
</linearGradient>
<rect x="14.9" y="8.8" fill="url(#SVGID_9_)" width="6" height="6.5"/>
</svg>
