<?xml version="1.0" encoding="utf-8"?>
<!-- Generator: Adobe Illustrator 18.1.1, SVG Export Plug-In . SVG Version: 6.00 Build 0)  -->
<!DOCTYPE svg PUBLIC "-//W3C//DTD SVG 1.1//EN" "http://www.w3.org/Graphics/SVG/1.1/DTD/svg11.dtd">
<svg version="1.1" id="Layer_1" xmlns="http://www.w3.org/2000/svg" xmlns:xlink="http://www.w3.org/1999/xlink" x="0px" y="0px"
	 viewBox="0 0 1984.2 2267.7" enable-background="new 0 0 1984.2 2267.7" xml:space="preserve">
<linearGradient id="SVGID_1_" gradientUnits="userSpaceOnUse" x1="0.6667" y1="1134.3733" x2="1984.9186" y2="1134.3733">
	<stop  offset="0" style="stop-color:#2896D3"/>
	<stop  offset="1" style="stop-color:#2E7DC1"/>
</linearGradient>
<path fill="url(#SVGID_1_)" d="M992.8,2126.5c-111.9,0-221.4-18.6-325.5-55.2c-101.5-35.3-195.8-86.1-280.1-151.2
	c-83.6-64.9-156.3-142.5-216.1-230.6c-30.1-44.2-56.7-91.1-78.9-139.5c-18.6-40.5-34.6-82.8-47.6-126l-1.7-5.6l82.5-22.8l1.6,5.3
	c26.8,87.7,66.5,169.9,117.8,244.3c55.8,81,123,151.7,199.7,210.3c76.5,58.4,162.5,104.3,255.8,136.5
	c93.3,32.2,191.7,48.6,292.4,48.6c82.7,0,163.5-10.9,240.3-32.4c76.4-21.3,149.2-52.1,216.4-91.5c67-39.4,128.8-87.2,183.5-142.1
	c55.1-55.1,102.8-116.8,142.1-183.5c39.1-66.5,69.9-139.1,91.5-215.9c21.5-76.4,32.4-157.4,32.4-240.8c0-82.6-10.9-163.5-32.4-240.3
	c-21.6-76.9-52.4-149.8-91.5-216.4c-39.2-66.6-87-128.3-142.1-183.5c-55.1-55.1-116.8-102.9-183.5-142.1
	c-66.8-39.2-139.6-70-216.4-91.5c-77.3-21.5-158.1-32.4-240.3-32.4c-86.9,0-172.7,12.4-254.9,36.9c-81.7,24.5-159.1,59.7-230,104.6
	c-70.8,45-135.5,100-192.1,163.3C259,596.4,211.6,668,174.6,746l-13.8,29h305.4v85.9H0.7V395.4h85.9v331.6l38.2-71.4
	c11.6-21.6,23.2-41.3,35.7-60.2c13.1-19.8,26.8-39.3,40.8-57.8c60.4-80.2,132.1-150.6,213.1-209.3
	c84.8-60.3,177.1-106.9,274.2-138.6c97.1-31.5,199.5-47.5,304.2-47.5c132.9,0,262.9,26.1,386.6,77.5
	c117.7,50.2,223.6,121.9,314.9,213.2c91.4,91.5,163.1,197.4,213.2,314.9c51.4,123.4,77.5,253.4,77.5,386.6
	c0,133.2-26.1,263.2-77.5,386.6c-50.1,117.6-121.9,223.6-213.2,314.9c-91.1,91.2-197,162.9-314.8,213.1
	C1256,2100.4,1126,2126.5,992.8,2126.5z M886.6,1215.9V648.5h85.9v530.9l352.5,353.5l-60.3,60.3L886.6,1215.9z"/>
</svg>
