<?xml version="1.0" encoding="utf-8"?>
<!-- Generator: Adobe Illustrator 18.1.1, SVG Export Plug-In . SVG Version: 6.00 Build 0)  -->
<!DOCTYPE svg PUBLIC "-//W3C//DTD SVG 1.1//EN" "http://www.w3.org/Graphics/SVG/1.1/DTD/svg11.dtd">
<svg version="1.1" id="Layer_1" xmlns="http://www.w3.org/2000/svg" xmlns:xlink="http://www.w3.org/1999/xlink" x="0px" y="0px"
	 viewBox="0 0 46 46" enable-background="new 0 0 46 46" xml:space="preserve">
<linearGradient id="SVGID_1_" gradientUnits="userSpaceOnUse" x1="0" y1="23" x2="46" y2="23">
	<stop  offset="0" style="stop-color:#2596D3"/>
	<stop  offset="1" style="stop-color:#2E7DC1"/>
</linearGradient>
<path fill="url(#SVGID_1_)" d="M23,46c-4,0-7.9-1-11.3-3l-11,3l2.9-10.8C1.2,31.5,0,27.3,0,23C0,10.3,10.3,0,23,0s23,10.3,23,23
	S35.7,46,23,46z M11.9,40.9l0.4,0.2C15.5,43,19.2,44,23,44c11.6,0,21-9.4,21-21S34.6,2,23,2S2,11.4,2,23c0,4.1,1.2,8.1,3.4,11.5
	l0.2,0.4l-2.2,8.3L11.9,40.9z"/>
</svg>
