<?xml version="1.0" encoding="utf-8"?>
<!-- Generator: Adobe Illustrator 18.1.1, SVG Export Plug-In . SVG Version: 6.00 Build 0)  -->
<!DOCTYPE svg PUBLIC "-//W3C//DTD SVG 1.1//EN" "http://www.w3.org/Graphics/SVG/1.1/DTD/svg11.dtd">
<svg version="1.1" id="Layer_1" xmlns="http://www.w3.org/2000/svg" xmlns:xlink="http://www.w3.org/1999/xlink" x="0px" y="0px"
	 viewBox="0 0 31 20" enable-background="new 0 0 31 20" xml:space="preserve">
<linearGradient id="SVGID_1_" gradientUnits="userSpaceOnUse" x1="-11.3887" y1="19" x2="30.0248" y2="19" gradientTransform="matrix(0.3622 0 0 1 20.125 0)">
	<stop  offset="0" style="stop-color:#F7F8F8;stop-opacity:0"/>
	<stop  offset="0.2485" style="stop-color:#D1D2D3"/>
	<stop  offset="0.5975" style="stop-color:#E2E2E3;stop-opacity:0.5356"/>
	<stop  offset="1" style="stop-color:#FFFFFF;stop-opacity:0"/>
</linearGradient>
<polyline fill="url(#SVGID_1_)" points="16,18 31,18 31,20 16,20 "/>
<linearGradient id="SVGID_2_" gradientUnits="userSpaceOnUse" x1="24.5002" y1="2.6352" x2="24.5002" y2="22.6625">
	<stop  offset="0" style="stop-color:#808184"/>
	<stop  offset="1" style="stop-color:#000000"/>
</linearGradient>
<path fill="url(#SVGID_2_)" d="M20.3,19c-0.3,0-0.5-0.1-0.7-0.3l-0.3-0.3C19.1,18.3,19,18,19,17.8c0-0.3,0.1-0.5,0.3-0.7l7.5-7.3
	l0.1-0.3c0-0.1,0-0.2-0.1-0.3l-7.5-7.3c-0.4-0.4-0.4-1,0-1.4l0.3-0.3C19.7,0.1,20,0,20.3,0c0.3,0,0.5,0.1,0.7,0.3l8.8,8.5
	c0.4,0.4,0.4,1,0,1.4L21,18.7C20.8,18.9,20.5,19,20.3,19L20.3,19z"/>
<linearGradient id="SVGID_3_" gradientUnits="userSpaceOnUse" x1="-104.5152" y1="19" x2="-63.1016" y2="19" gradientTransform="matrix(-0.3622 0 0 1 -22.8554 0)">
	<stop  offset="0" style="stop-color:#F7F8F8;stop-opacity:0"/>
	<stop  offset="0.2485" style="stop-color:#D1D2D3"/>
	<stop  offset="0.5975" style="stop-color:#E2E2E3;stop-opacity:0.5356"/>
	<stop  offset="1" style="stop-color:#FFFFFF;stop-opacity:0"/>
</linearGradient>
<polyline fill="url(#SVGID_3_)" points="15,18 0,18 0,20 15,20 "/>
<linearGradient id="SVGID_4_" gradientUnits="userSpaceOnUse" x1="-10.2309" y1="2.6352" x2="-10.2309" y2="22.6625" gradientTransform="matrix(-1 0 0 1 -2.7305 0)">
	<stop  offset="0" style="stop-color:#808184"/>
	<stop  offset="1" style="stop-color:#000000"/>
</linearGradient>
<path fill="url(#SVGID_4_)" d="M11.7,19c0.3,0,0.5-0.1,0.7-0.3l0.3-0.3c0.2-0.2,0.3-0.4,0.3-0.7c0-0.3-0.1-0.5-0.3-0.7L5.2,9.8
	L5.1,9.5c0-0.1,0-0.2,0.1-0.3l7.5-7.3c0.4-0.4,0.4-1,0-1.4l-0.3-0.3C12.3,0.1,12,0,11.7,0c-0.3,0-0.5,0.1-0.7,0.3L2.3,8.8
	c-0.4,0.4-0.4,1,0,1.4l8.7,8.5C11.2,18.9,11.5,19,11.7,19L11.7,19z"/>
</svg>
