<?xml version="1.0" encoding="utf-8"?>
<!-- Generator: Adobe Illustrator 18.1.1, SVG Export Plug-In . SVG Version: 6.00 Build 0)  -->
<!DOCTYPE svg PUBLIC "-//W3C//DTD SVG 1.1//EN" "http://www.w3.org/Graphics/SVG/1.1/DTD/svg11.dtd">
<svg version="1.1" id="Layer_1" xmlns="http://www.w3.org/2000/svg" xmlns:xlink="http://www.w3.org/1999/xlink" x="0px" y="0px"
	 viewBox="0 0 30 26" enable-background="new 0 0 30 26" xml:space="preserve">
<linearGradient id="SVGID_1_" gradientUnits="userSpaceOnUse" x1="-45.9001" y1="25" x2="17.6008" y2="25" gradientTransform="matrix(0.3622 0 0 1 20.125 0)">
	<stop  offset="0" style="stop-color:#F7F8F8;stop-opacity:0"/>
	<stop  offset="0.5" style="stop-color:#D1D2D3"/>
	<stop  offset="0.7322" style="stop-color:#E2E2E3;stop-opacity:0.5356"/>
	<stop  offset="1" style="stop-color:#FFFFFF;stop-opacity:0"/>
</linearGradient>
<rect x="3.5" y="24" fill="url(#SVGID_1_)" width="23" height="2"/>
<g>
	<linearGradient id="SVGID_2_" gradientUnits="userSpaceOnUse" x1="15" y1="8.8487" x2="15" y2="29.2525">
		<stop  offset="0" style="stop-color:#BBBDBF"/>
		<stop  offset="1" style="stop-color:#231F20;stop-opacity:0.6"/>
	</linearGradient>
	<path fill="url(#SVGID_2_)" d="M15,24c-0.5,0-0.9-0.2-1.2-0.5l-4-3.6H3.3C1.5,20,0,18.6,0,16.9V3.1C0,1.4,1.5,0,3.3,0h23.3
		C28.5,0,30,1.4,30,3.1v13.8c0,1.7-1.5,3.1-3.3,3.1h-6.4l-4,3.6C15.9,23.8,15.5,24,15,24z"/>
	<linearGradient id="SVGID_3_" gradientUnits="userSpaceOnUse" x1="15" y1="9.1114" x2="15" y2="27.8151">
		<stop  offset="0" style="stop-color:#FFFFFF"/>
		<stop  offset="1" style="stop-color:#D1D2D3"/>
	</linearGradient>
	<path fill="url(#SVGID_3_)" d="M26.7,1H3.3C2,1,1,1.9,1,3.1v13.8C1,18,2,19,3.3,19h6.9l4.3,3.8c0.3,0.3,0.8,0.3,1.1,0l4.3-3.8h6.8
		c1.3,0,2.3-0.9,2.3-2.1V3.1C29,1.9,27.9,1,26.7,1z"/>
</g>
<linearGradient id="SVGID_4_" gradientUnits="userSpaceOnUse" x1="15" y1="-2.0863" x2="15" y2="23.9841">
	<stop  offset="0" style="stop-color:#FFFFFF"/>
	<stop  offset="1" style="stop-color:#D1D2D3"/>
</linearGradient>
<path opacity="0.5" fill="url(#SVGID_4_)" d="M10.9,18h-8c-0.2,0-0.3-0.2-0.3-0.3V2.3C2.5,2.2,2.7,2,2.8,2h24.3
	c0.2,0,0.3,0.2,0.3,0.3v15.3c0,0.2-0.2,0.3-0.3,0.3h-8L15,22L10.9,18z"/>
</svg>
