<?xml version="1.0" encoding="utf-8"?>
<!-- Generator: Adobe Illustrator 18.1.1, SVG Export Plug-In . SVG Version: 6.00 Build 0)  -->
<!DOCTYPE svg PUBLIC "-//W3C//DTD SVG 1.1//EN" "http://www.w3.org/Graphics/SVG/1.1/DTD/svg11.dtd">
<svg version="1.1"
	 id="svg3769" sodipodi:docname="New document 3" inkscape:version="0.48.3.1 r9886" xmlns:inkscape="http://www.inkscape.org/namespaces/inkscape" xmlns:rdf="http://www.w3.org/1999/02/22-rdf-syntax-ns#" xmlns:sodipodi="http://sodipodi.sourceforge.net/DTD/sodipodi-0.dtd" xmlns:cc="http://creativecommons.org/ns#" xmlns:dc="http://purl.org/dc/elements/1.1/" xmlns:svg="http://www.w3.org/2000/svg"
	 xmlns="http://www.w3.org/2000/svg" xmlns:xlink="http://www.w3.org/1999/xlink" x="0px" y="0px"
	 viewBox="-1495.3 408.7 1451.3 1451.3" enable-background="new -1495.3 408.7 1451.3 1451.3" xml:space="preserve">
<sodipodi:namedview  inkscape:current-layer="layer1" inkscape:pageshadow="2" inkscape:document-units="px" inkscape:pageopacity="0.0" borderopacity="1.0" inkscape:cy="-39.177766" inkscape:zoom="1.4" inkscape:cx="60.605349" showgrid="false" fit-margin-top="4" pagecolor="#ffffff" fit-margin-left="4" bordercolor="#666666" inkscape:window-height="965" fit-margin-bottom="4" inkscape:window-y="0" inkscape:window-maximized="1" inkscape:window-x="0" fit-margin-right="4" inkscape:window-width="1280" id="base">
	</sodipodi:namedview>
<g id="layer1" transform="translate(-314.39464,-274.3971)" inkscape:label="Layer 1" inkscape:groupmode="layer">
	<path id="svg" inkscape:connector-curvature="0" fill="#1EBBEE" d="M270.4,1442.1c0-114.7-29.7-222.5-81.7-316.2
		C410.4,624.1-48.9,697.6-74.5,702.6c-97.3,19-187.3,49.6-270.4,88.4c-12.2-0.7-24.6-1.1-37-1.1c-309.9,0-569.3,216.2-635.7,505.9
		c163.3-183.3,277.7-257.2,346.1-286.8c-10.9,9.8-21.6,19.6-32.1,29.6c-3.5,3.3-6.9,6.7-10.3,10c-6.9,6.7-13.9,13.4-20.6,20.1
		c-4,4-7.9,8.1-11.9,12.1c-6,6.1-12,12.2-17.8,18.3c-4.2,4.4-8.2,8.7-12.3,13.1c-5.5,5.9-10.9,11.7-16.2,17.6
		c-4.1,4.6-8.2,9.1-12.3,13.7c-5.1,5.7-10.1,11.4-15,17.1c-4.1,4.7-8.2,9.5-12.2,14.2c-4.7,5.5-9.3,11.1-13.9,16.6
		c-4.1,4.9-8.1,9.8-12,14.7c-4.3,5.3-8.5,10.6-12.7,15.8c-4.1,5.1-8.1,10.2-12.1,15.3c-3.8,4.9-7.4,9.7-11.1,14.6
		c-4.2,5.5-8.4,11-12.4,16.4c-2.9,3.9-5.7,7.8-8.5,11.7c-25.8,35.2-49.3,69.6-70.6,102.8c-0.1,0.1-0.1,0.2-0.2,0.2
		c-5.6,8.7-11,17.3-16.3,25.8c-0.3,0.5-0.6,0.9-0.9,1.4c-5.3,8.6-10.4,17-15.4,25.3c-0.2,0.3-0.4,0.6-0.5,0.9
		c-13.4,22.4-25.9,44-37.1,64.3c-58.7,106.5-87.3,180.8-88.6,185.2C-1330,2349-751.1,2069-670.3,2027.2c87,43,184.9,67.2,288.5,67.2
		c283.6,0,524.9-181,614.7-433.8h-342.7c-50.7,85.7-148.3,143.7-260.5,143.7c-164.3,0-297.5-124.5-297.5-278.1H265
		C268.6,1498.6,270.4,1470.6,270.4,1442.1L270.4,1442.1z M148.5,800.3c56.2,37.9,101.2,97.4,23.8,297.9
		C98.2,978.9-13.4,885.3-146.1,833.9C-85.8,804.7,63.7,743,148.5,800.3z M-1045,2025.8c-45.7-46.9-53.8-161.2,47.1-369.4
		c50.9,146.5,152.6,269.2,284,347.1C-779.3,2039.5-952.7,2120.5-1045,2025.8z M-669.3,1347.8c5.2-149.3,135.1-268.8,294.7-268.8
		c159.6,0,289.5,119.5,294.7,268.8H-669.3L-669.3,1347.8z"/>
</g>
</svg>
