<?xml version="1.0" encoding="utf-8"?>
<!-- Generator: Adobe Illustrator 18.1.1, SVG Export Plug-In . SVG Version: 6.00 Build 0)  -->
<!DOCTYPE svg PUBLIC "-//W3C//DTD SVG 1.1//EN" "http://www.w3.org/Graphics/SVG/1.1/DTD/svg11.dtd">
<svg version="1.1" id="Layer_1" xmlns="http://www.w3.org/2000/svg" xmlns:xlink="http://www.w3.org/1999/xlink" x="0px" y="0px"
	 viewBox="-970 1114.7 45 39" enable-background="new -970 1114.7 45 39" xml:space="preserve">
<g>
	<g>
		<linearGradient id="SVGID_1_" gradientUnits="userSpaceOnUse" x1="-970" y1="1134.22" x2="-925" y2="1134.22">
			<stop  offset="0" style="stop-color:#0098E0"/>
			<stop  offset="1" style="stop-color:#0080D9"/>
		</linearGradient>
		<path fill="url(#SVGID_1_)" d="M-956,1119.7h30c0.6,0,1-0.4,1-1s-0.4-1-1-1h-30c-0.6,0-1,0.4-1,1S-956.6,1119.7-956,1119.7z
			 M-964,1114.7h-3c-1.7,0-3,1.3-3,3v3c0,1.7,1.3,3,3,3h3c1.7,0,3-1.3,3-3v-3C-961,1116-962.3,1114.7-964,1114.7z M-963,1120.7
			c0,0.6-0.4,1-1,1h-3c-0.6,0-1-0.4-1-1v-3c0-0.6,0.4-1,1-1h3c0.6,0,1,0.4,1,1V1120.7z M-926,1132.7h-30c-0.6,0-1,0.4-1,1s0.4,1,1,1
			h30c0.6,0,1-0.4,1-1S-925.4,1132.7-926,1132.7z M-964,1129.7h-3c-1.7,0-3,1.3-3,3v3c0,1.7,1.3,3,3,3h3c1.7,0,3-1.3,3-3v-3
			C-961,1131-962.3,1129.7-964,1129.7z M-963,1135.7c0,0.6-0.4,1-1,1h-3c-0.6,0-1-0.4-1-1v-3c0-0.6,0.4-1,1-1h3c0.6,0,1,0.4,1,1
			V1135.7z M-926,1147.7h-30c-0.6,0-1,0.4-1,1s0.4,1,1,1h30c0.6,0,1-0.4,1-1S-925.4,1147.7-926,1147.7z M-964,1144.7h-3
			c-1.7,0-3,1.3-3,3v3c0,1.7,1.3,3,3,3h3c1.7,0,3-1.3,3-3v-3C-961,1146-962.3,1144.7-964,1144.7z M-963,1150.7c0,0.6-0.4,1-1,1h-3
			c-0.6,0-1-0.4-1-1v-3c0-0.6,0.4-1,1-1h3c0.6,0,1,0.4,1,1V1150.7z"/>
	</g>
</g>
</svg>
