<?xml version="1.0" encoding="utf-8"?>
<!-- Generator: Adobe Illustrator 18.1.1, SVG Export Plug-In . SVG Version: 6.00 Build 0)  -->
<!DOCTYPE svg PUBLIC "-//W3C//DTD SVG 1.1//EN" "http://www.w3.org/Graphics/SVG/1.1/DTD/svg11.dtd">
<svg version="1.1" id="Layer_1" xmlns="http://www.w3.org/2000/svg" xmlns:xlink="http://www.w3.org/1999/xlink" x="0px" y="0px"
	 viewBox="0 0 44.9 45.4" enable-background="new 0 0 44.9 45.4" xml:space="preserve">
<path fill="#ABABAB" d="M39.4,19.7l5.4-4.5l-1.1-2.9l-7.2,0.6c-1.1-1.7-2.6-3.2-4.2-4.3l0.8-7.3l-2.8-1.2l-4.6,5.6
	c-1.1-0.2-2.2-0.3-3.3-0.3c-1,0-2,0-2.9,0.2L15.1,0l-2.8,1.2l0.6,7.2c-1.8,1.2-3.3,2.6-4.5,4.3l-7-0.8l-1.2,2.8l5.3,4.5
	c-0.4,2.2-0.5,4.4-0.1,6.5L0,30.1l1.2,3L8,32.4c1.2,1.8,2.7,3.5,4.5,4.7L11.8,44l2.8,1.2l4.4-5.2c1.1,0.2,2.3,0.3,3.4,0.3
	c1.1,0,2.1-0.1,3.2-0.3l4.3,5.4l2.9-1.3l-0.6-7c1.8-1.2,3.3-2.8,4.5-4.5l7,0.8l1.2-2.8l-5.4-4.6C39.8,23.9,39.8,21.8,39.4,19.7z
	 M22.8,31.1c-4.5,0-8.2-3.6-8.1-8.2c0-4.5,3.6-8.2,8.1-8.2s8.1,3.6,8.1,8.2S27.2,31.1,22.8,31.1z"/>
</svg>
