<?xml version="1.0" encoding="utf-8"?>
<!-- Generator: Adobe Illustrator 18.1.1, SVG Export Plug-In . SVG Version: 6.00 Build 0)  -->
<!DOCTYPE svg PUBLIC "-//W3C//DTD SVG 1.1//EN" "http://www.w3.org/Graphics/SVG/1.1/DTD/svg11.dtd">
<svg version="1.1" id="Layer_1" xmlns="http://www.w3.org/2000/svg" xmlns:xlink="http://www.w3.org/1999/xlink" x="0px" y="0px"
	 viewBox="0 0 45 39" enable-background="new 0 0 45 39" xml:space="preserve">
<g>
	<g>
		<linearGradient id="SVGID_1_" gradientUnits="userSpaceOnUse" x1="0" y1="19.5" x2="45" y2="19.5">
			<stop  offset="0" style="stop-color:#2596D3"/>
			<stop  offset="1" style="stop-color:#2E7DC1"/>
		</linearGradient>
		<path fill="url(#SVGID_1_)" d="M14,5h30c0.6,0,1-0.4,1-1s-0.4-1-1-1H14c-0.6,0-1,0.4-1,1S13.4,5,14,5z M6,0H3C1.3,0,0,1.3,0,3v3
			c0,1.7,1.3,3,3,3h3c1.7,0,3-1.3,3-3V3C9,1.3,7.7,0,6,0z M7,6c0,0.6-0.4,1-1,1H3C2.4,7,2,6.6,2,6V3c0-0.6,0.4-1,1-1h3
			c0.6,0,1,0.4,1,1V6z M44,18H14c-0.6,0-1,0.4-1,1s0.4,1,1,1h30c0.6,0,1-0.4,1-1S44.6,18,44,18z M6,15H3c-1.7,0-3,1.3-3,3v3
			c0,1.7,1.3,3,3,3h3c1.7,0,3-1.3,3-3v-3C9,16.3,7.7,15,6,15z M7,21c0,0.6-0.4,1-1,1H3c-0.6,0-1-0.4-1-1v-3c0-0.6,0.4-1,1-1h3
			c0.6,0,1,0.4,1,1V21z M44,33H14c-0.6,0-1,0.4-1,1s0.4,1,1,1h30c0.6,0,1-0.4,1-1S44.6,33,44,33z M6,30H3c-1.7,0-3,1.3-3,3v3
			c0,1.7,1.3,3,3,3h3c1.7,0,3-1.3,3-3v-3C9,31.3,7.7,30,6,30z M7,36c0,0.6-0.4,1-1,1H3c-0.6,0-1-0.4-1-1v-3c0-0.6,0.4-1,1-1h3
			c0.6,0,1,0.4,1,1V36z"/>
	</g>
</g>
</svg>
