<?xml version="1.0" encoding="utf-8"?>
<!-- Generator: Adobe Illustrator 18.1.1, SVG Export Plug-In . SVG Version: 6.00 Build 0)  -->
<!DOCTYPE svg PUBLIC "-//W3C//DTD SVG 1.1//EN" "http://www.w3.org/Graphics/SVG/1.1/DTD/svg11.dtd">
<svg version="1.1" id="Layer_1" xmlns="http://www.w3.org/2000/svg" xmlns:xlink="http://www.w3.org/1999/xlink" x="0px" y="0px"
	 viewBox="0 0 49.8 50.2" enable-background="new 0 0 49.8 50.2" xml:space="preserve">
<linearGradient id="SVGID_1_" gradientUnits="userSpaceOnUse" x1="9.094947e-13" y1="25.1" x2="49.77" y2="25.1">
	<stop  offset="0" style="stop-color:#2596D3"/>
	<stop  offset="1" style="stop-color:#2E7DC1"/>
</linearGradient>
<path fill="url(#SVGID_1_)" d="M17.3,2l4.6,5.7c0.9-0.2,1.9-0.2,2.9-0.2c1.1,0,2.2,0.1,3.3,0.3l4.7-5.7l2.8,1.2l-0.8,7.4
	c1.7,1.2,3.2,2.7,4.3,4.4l7.3-0.6l1.1,2.9L42,22c0.4,2.1,0.4,4.2,0,6.3l5.5,4.7l-1.2,2.8L39.2,35c-1.3,1.8-2.8,3.4-4.6,4.6l0.6,7.1
	L32.3,48l-4.4-5.5c-1.1,0.2-2.1,0.3-3.2,0.3s-2.3-0.1-3.4-0.3l-4.5,5.3L14,46.6l0.7-6.9c-1.9-1.3-3.4-3-4.6-4.8l-6.9,0.6l-1.2-3
	l5.5-4.4c-0.4-2.1-0.3-4.4,0.1-6.6l-5.4-4.6l1.2-2.8l7.1,0.8c1.3-1.8,2.8-3.2,4.6-4.4l-0.6-7.3L17.3,2 M25.1,33.5
	c4.5,0,8.2-3.7,8.2-8.3s-3.7-8.3-8.2-8.3s-8.2,3.7-8.2,8.3C16.8,29.8,20.5,33.5,25.1,33.5 M17.3,0c-0.2,0-0.5,0-0.7,0.1l-2.9,1.2
	c-0.8,0.3-1.3,1.2-1.2,2L13,9.5c-1.3,0.9-2.4,2-3.4,3.3l-6-0.7c-0.1,0-0.1,0-0.2,0c-0.8,0-1.5,0.5-1.8,1.2l-1.2,2.8
	c-0.3,0.8-0.1,1.8,0.5,2.3l4.5,3.9c-0.2,1.6-0.3,3.3-0.1,4.9L0.7,31c-0.7,0.6-0.9,1.5-0.6,2.3l1.1,2.9c0.3,0.8,1,1.3,1.9,1.3
	c0.1,0,0.1,0,0.2,0L9.1,37c1,1.4,2.2,2.6,3.5,3.6L12,46.4c-0.1,0.9,0.4,1.7,1.2,2.1l2.8,1.2c0.3,0.1,0.5,0.2,0.8,0.2
	c0.6,0,1.1-0.2,1.5-0.7l3.7-4.5c0.9,0.1,1.8,0.2,2.7,0.2c0.8,0,1.6,0,2.4-0.1l3.7,4.6c0.4,0.5,1,0.8,1.6,0.8c0.2,0,0.5,0,0.7-0.1
	l2.9-1.2c0.8-0.3,1.3-1.2,1.2-2L36.7,41c1.3-1,2.5-2.2,3.5-3.4l5.9,0.6c0.1,0,0.1,0,0.2,0c0.8,0,1.5-0.5,1.8-1.2l1.2-2.8
	c0.3-0.8,0.1-1.8-0.5-2.3l-4.6-4c0.2-1.6,0.2-3.1,0-4.7l4.8-3.9c0.7-0.6,0.9-1.5,0.6-2.3l-1.1-2.9c-0.3-0.8-1-1.3-1.9-1.3
	c-0.1,0-0.1,0-0.2,0l-6.2,0.5c-0.9-1.2-2-2.3-3.2-3.3l0.7-6.2c0.1-0.9-0.4-1.7-1.2-2.1l-2.8-1.2c-0.3-0.1-0.5-0.2-0.8-0.2
	c-0.6,0-1.1,0.3-1.5,0.7l-4,4.8c-0.8-0.1-1.7-0.2-2.5-0.2c-0.7,0-1.3,0-2,0.1L19,0.8C18.5,0.3,17.9,0,17.3,0L17.3,0z M25.1,31.5
	c-3.4,0-6.2-2.8-6.2-6.3s2.8-6.3,6.2-6.3s6.2,2.8,6.2,6.3C31.3,28.7,28.5,31.5,25.1,31.5L25.1,31.5z"/>
</svg>
