<?xml version="1.0" encoding="utf-8"?>
<!-- Generator: Adobe Illustrator 18.1.1, SVG Export Plug-In . SVG Version: 6.00 Build 0)  -->
<!DOCTYPE svg PUBLIC "-//W3C//DTD SVG 1.1//EN" "http://www.w3.org/Graphics/SVG/1.1/DTD/svg11.dtd">
<svg version="1.1" id="Layer_1" xmlns="http://www.w3.org/2000/svg" xmlns:xlink="http://www.w3.org/1999/xlink" x="0px" y="0px"
	 viewBox="0 0 1984.2 2267.7" enable-background="new 0 0 1984.2 2267.7" xml:space="preserve">
<linearGradient id="SVGID_1_" gradientUnits="userSpaceOnUse" x1="0.3599" y1="1134.9712" x2="1984.6119" y2="1134.9712">
	<stop  offset="0" style="stop-color:#2896D3"/>
	<stop  offset="1" style="stop-color:#2E7DC1"/>
</linearGradient>
<path fill="url(#SVGID_1_)" d="M1159.2,154.8c-55.6-7.9-111.1-11.9-166.7-11.9C444.8,142.8,0.4,587.3,0.4,1135
	s444.5,992.1,992.1,992.1s992.1-444.5,992.1-992.1C1984.6,646.8,1635.4,238.1,1159.2,154.8z M1905.2,1135
	c0,178.6-51.6,349.2-142.9,492.1l-694.5-488.1L1806,718.3C1869.5,841.3,1905.2,984.2,1905.2,1135z M1766.3,646.8l-722.3,412.7
	L1183,242.1C1433,297.6,1635.4,444.5,1766.3,646.8z M992.5,2047.7c-504,0-912.8-408.8-912.8-912.8s408.8-912.8,912.8-912.8
	c39.7,0,75.4,4,111.1,7.9l-154.8,924.7l765.9,535.7C1548.1,1908.8,1286.2,2047.7,992.5,2047.7z"/>
</svg>
