<?xml version="1.0" encoding="utf-8"?>
<!-- Generator: Adobe Illustrator 18.1.1, SVG Export Plug-In . SVG Version: 6.00 Build 0)  -->
<!DOCTYPE svg PUBLIC "-//W3C//DTD SVG 1.1//EN" "http://www.w3.org/Graphics/SVG/1.1/DTD/svg11.dtd">
<svg version="1.1" id="Layer_1" xmlns="http://www.w3.org/2000/svg" xmlns:xlink="http://www.w3.org/1999/xlink" x="0px" y="0px"
	 viewBox="-971 1108.7 42 51" enable-background="new -971 1108.7 42 51" xml:space="preserve">
<g>
	<g>
		<linearGradient id="SVGID_1_" gradientUnits="userSpaceOnUse" x1="-971" y1="1134.22" x2="-929" y2="1134.22">
			<stop  offset="0" style="stop-color:#0098E0"/>
			<stop  offset="1" style="stop-color:#0080D9"/>
		</linearGradient>
		<path fill="url(#SVGID_1_)" d="M-929,1128.9c0-8.5-4.6-16-11.5-20.2c-0.2,0.7-0.4,1.3-0.8,1.9c6.2,3.8,10.3,10.6,10.3,18.3
			c0,11.9-9.7,21.6-21.7,21.6c-4.1,0-7.9-1.1-11.1-3.1c-0.3,0.6-0.7,1.1-1.2,1.6c3.3,2,7.1,3.2,11.1,3.4v5.3h-6c-0.6,0-1,0.4-1,1
			s0.4,1,1,1h14c0.6,0,1-0.4,1-1c0-0.5-0.4-1-1-1h-6v-5.3C-939.2,1152-929,1141.6-929,1128.9z M-935,1128.5c0-9.8-8.1-17.9-18-17.9
			s-18,8-18,17.9s8.1,17.9,18,17.9S-935,1138.4-935,1128.5z M-969,1128.5c0-8.7,7.2-15.9,16-15.9s16,7.1,16,15.9
			c0,8.8-7.2,15.9-16,15.9S-969,1137.3-969,1128.5z"/>
	</g>
</g>
</svg>
