<?xml version="1.0" encoding="utf-8"?>
<!-- Generator: Adobe Illustrator 19.0.0, SVG Export Plug-In . SVG Version: 6.00 Build 0)  -->
<!DOCTYPE svg PUBLIC "-//W3C//DTD SVG 1.1//EN" "http://www.w3.org/Graphics/SVG/1.1/DTD/svg11.dtd">
<svg version="1.1" id="Layer_1" xmlns="http://www.w3.org/2000/svg" xmlns:xlink="http://www.w3.org/1999/xlink" x="0px" y="0px"
	 viewBox="0 0 85 79.9" enable-background="new 0 0 85 79.9" xml:space="preserve">
<path id="XMLID_391_" fill="#FFFFFF" d="M85,53.6c0,6-2.2,11.4-5.9,15.6c-1.1,1.2,1.4,9.7,1.4,9.7s-8-4.4-9.7-3.7
	c-2.8,1.2-5.9,1.8-9.1,1.8c-12.9,0-23.4-10.5-23.4-23.4s10.5-23.4,23.4-23.4S85,40.7,85,53.6z"/>
<path id="XMLID_397_" fill="#FFFFFF" d="M32.9,53.6c0-15.9,12.9-28.8,28.8-28.8c5,0,9.7,1.3,13.8,3.5C71.1,12,56.1,0,38.4,0
	C17.2,0,0,17.2,0,38.4C0,48.2,3.7,57.2,9.8,64c1.8,2-2.2,15.9-2.2,15.9s13.2-7.2,15.9-6.1c4.6,1.9,9.6,3,14.9,3c2,0,3.9-0.1,5.8-0.4
	C37.4,71.1,32.9,62.9,32.9,53.6z"/>
</svg>
